<svg width="22" height="22" viewBox="0 0 22 22" fill="none" xmlns="http://www.w3.org/2000/svg">
  <path d="M13.7443 19.2422V11.9119C13.7443 11.6689 13.6477 11.4358 13.4759 11.264C13.3041 11.0921 13.071 10.9956 12.828 10.9956H9.16287C8.91985 10.9956 8.68679 11.0921 8.51496 11.264C8.34312 11.4358 8.24658 11.6689 8.24658 11.9119V19.2422" stroke="currentColor" stroke-width="1.83257" stroke-linecap="round" stroke-linejoin="round"/>
  <path d="M2.74878 9.1628C2.74872 8.89622 2.80681 8.63284 2.91901 8.39103C3.03122 8.14921 3.19482 7.93479 3.39842 7.76272L9.81241 2.26593C10.1432 1.98638 10.5623 1.83301 10.9953 1.83301C11.4284 1.83301 11.8475 1.98638 12.1783 2.26593L18.5922 7.76272C18.7958 7.93479 18.9594 8.14921 19.0716 8.39103C19.1838 8.63284 19.2419 8.89622 19.2419 9.1628V17.4093C19.2419 17.8954 19.0488 18.3615 18.7051 18.7052C18.3615 19.0488 17.8953 19.2419 17.4093 19.2419H4.58135C4.09532 19.2419 3.6292 19.0488 3.28553 18.7052C2.94185 18.3615 2.74878 17.8954 2.74878 17.4093V9.1628Z" stroke="currentColor" stroke-width="1.83257" stroke-linecap="round" stroke-linejoin="round"/>
</svg>
